<svg width="64" height="64" viewBox="0 0 64 64" fill="none" xmlns="http://www.w3.org/2000/svg">
<path d="M44.0991 45H25.3974C22.5413 44.9994 19.7416 44.3284 17.3112 43.062C14.8808 41.7956 12.9155 39.9838 11.6349 37.8289C10.3543 35.6739 9.8088 33.2609 10.0594 30.8594C10.31 28.4579 11.3468 26.1625 13.054 24.2297C14.7612 22.2969 17.0714 20.8029 19.7266 19.9146C22.3819 19.0263 25.2774 18.7788 28.0897 19.1996C30.902 19.6204 33.5203 20.693 35.652 22.2976C37.7836 23.9021 39.3447 25.9754 40.1608 28.2857H44.0991C46.725 28.2857 49.2433 29.1662 51.1001 30.7335C52.9569 32.3007 54 34.4264 54 36.6429C54 38.8593 52.9569 40.985 51.1001 42.5522C49.2433 44.1195 46.725 45 44.0991 45Z" stroke="#673DE6" stroke-width="2" stroke-linecap="round" stroke-linejoin="round"/>
</svg>
